<?xml version="1.0" standalone="no"?>
<!DOCTYPE svg PUBLIC "-//W3C//DTD SVG 20010904//EN"
 "http://www.w3.org/TR/2001/REC-SVG-20010904/DTD/svg10.dtd">
<svg version="1.0" xmlns="http://www.w3.org/2000/svg"
 width="435.000000pt" height="435.000000pt" viewBox="0 0 435.000000 435.000000"
 preserveAspectRatio="xMidYMid meet">
<metadata>
Created by potrace 1.11, written by Peter Selinger 2001-2013
</metadata>
<g transform="translate(0.000000,435.000000) scale(0.100000,-0.100000)"
fill="#000000" stroke="none">
<path d="M587 3513 c-6 -10 -7 -2592 -1 -2613 3 -13 70 -15 541 -14 296 1 543
2 548 4 26 6 42 5 60 -5 14 -8 347 -10 1125 -9 608 1 1110 2 1115 3 7 1 10
436 10 1294 0 855 -3 1291 -10 1290 -6 0 -17 3 -26 7 -8 5 -21 5 -29 0 -8 -5
-18 -6 -23 -3 -11 7 -107 10 -107 3 0 -3 -17 -4 -37 -3 -21 1 -38 2 -38 3 0 1
-15 2 -33 3 -17 1 -32 -2 -32 -6 0 -5 -4 -5 -10 -2 -14 9 -80 12 -85 5 -3 -4
-23 -4 -45 0 -22 4 -40 5 -40 1 0 -3 -17 -5 -37 -4 -21 1 -38 2 -38 3 0 1 -15
2 -33 3 -17 1 -32 -2 -32 -6 0 -5 -4 -5 -10 -2 -14 9 -80 13 -85 5 -2 -4 -27
-4 -55 0 -27 4 -50 3 -50 -1 0 -5 -6 -6 -14 -3 -21 8 -146 10 -146 2 0 -3 -12
-3 -27 1 -16 4 -45 4 -66 1 -20 -4 -40 -4 -43 1 -2 4 -15 4 -28 -1 -13 -5 -26
-6 -30 -3 -7 7 -106 10 -106 3 0 -3 -17 -4 -37 -3 -21 1 -38 2 -38 3 0 1 -15
2 -33 3 -17 1 -32 -1 -32 -5 0 -4 -10 -4 -22 0 -21 6 -50 7 -70 2 -19 -4 -79
-3 -84 3 -3 3 -16 2 -29 -3 -13 -5 -25 -6 -28 -3 -9 8 -127 9 -127 1 0 -4 -6
-5 -14 -2 -20 8 -146 10 -146 3 0 -3 -19 -3 -42 2 -24 4 -83 13 -133 19 -49 7
-100 15 -111 20 -27 11 -1131 13 -1137 3z m1068 -283 c0 -1 11 -3 25 -4 14 -1
34 -5 45 -9 20 -7 20 -15 18 -788 -1 -430 -4 -788 -7 -795 -4 -11 -32 -14
-113 -14 -99 0 -136 7 -134 24 1 3 1 285 1 626 l0 620 -65 0 c-38 0 -72 -5
-81 -12 -9 -7 -33 -29 -54 -48 -21 -19 -57 -51 -79 -70 -23 -19 -59 -51 -80
-70 -21 -19 -47 -42 -59 -50 -12 -8 -22 -20 -22 -28 0 -7 -4 -10 -10 -7 -5 3
-10 2 -10 -4 0 -5 -9 -13 -20 -16 -11 -4 -18 -10 -15 -15 3 -5 -3 -11 -13 -15
-14 -4 -18 -13 -16 -33 1 -14 8 -28 13 -30 6 -2 11 -8 11 -14 0 -15 27 -39 49
-43 18 -3 53 21 123 87 15 14 28 24 28 20 0 -4 13 8 29 26 17 17 33 32 37 32
4 0 17 11 30 25 13 14 28 25 33 25 14 0 13 -1001 -1 -1017 -7 -9 -50 -13 -148
-13 l-137 0 -2 -59 c-1 -40 3 -60 11 -63 7 -2 165 -4 351 -4 387 1 351 12 349
-101 0 -35 -1 -94 -1 -132 -1 -78 -1 -78 -85 -86 -26 -3 -51 -7 -55 -9 -4 -3
-13 -1 -21 4 -7 4 -24 4 -37 -1 -14 -5 -23 -5 -23 1 0 6 -9 6 -23 1 -13 -5
-30 -5 -37 -1 -8 5 -19 5 -25 0 -6 -5 -17 -5 -25 0 -7 4 -23 5 -35 0 -12 -5
-28 -5 -35 0 -7 4 -21 5 -31 1 -10 -3 -50 -4 -89 -1 -38 3 -78 2 -88 -1 -9 -4
-25 -3 -34 2 -10 6 -19 5 -23 -1 -3 -6 -15 -6 -30 0 -13 5 -27 5 -30 1 -3 -5
-20 -5 -39 -1 -19 4 -37 5 -40 3 -3 -3 -5 458 -5 1025 1 941 2 1031 17 1034
19 4 707 2 707 -2z"/>
</g>
</svg>
